# xmcd
#
# Track frame offsets:
#	150
#	22030
#	45070
#	71982
#	88545
#	107397
#	125385
#	171517
#	202075
#	226020
#
# Disc length: 3307 seconds
#
# Revision: 0
# Processed by: cddbd v1.5PL3 Copyright (c) Steve Scherf et al.
# Submitted via: dBpowerAMP V4.0
#
DISCID=7d0ce90a
DTITLE=Isaac Scott - High Class Woman
DYEAR=1996
DGENRE=Blues
TTITLE0=Goodbye My Lady
TTITLE1=High Class Woman
TTITLE2=The Thrill Is Gone
TTITLE3=Wrapped Up In Love Again
TTITLE4=Same Old Blues
TTITLE5=I Don't Know
TTITLE6=Sweet Home Chicago
TTITLE7=Fever
TTITLE8=Under - Plunder
TTITLE9=Woke Up This Morning
EXTD=
EXTT0=
EXTT1=
EXTT2=
EXTT3=
EXTT4=
EXTT5=
EXTT6=
EXTT7=
EXTT8=
EXTT9=
PLAYORDER=
